<mxfile host="app.diagrams.net" agent="Mozilla/5.0 (Windows NT 10.0; Win64; x64) AppleWebKit/537.36 (KHTML, like Gecko) Chrome/139.0.0.0 Safari/537.36" version="28.1.2">
  <diagram name="Page-1" id="REfGKUqjiadW3jcTyYVW">
    <mxGraphModel dx="1042" dy="562" grid="1" gridSize="10" guides="1" tooltips="1" connect="1" arrows="1" fold="1" page="1" pageScale="1" pageWidth="850" pageHeight="1100" math="0" shadow="0">
      <root>
        <mxCell id="0" />
        <mxCell id="1" parent="0" />
        <mxCell id="h-V5rqtTQPOeEAhD1SOx-9" style="edgeStyle=orthogonalEdgeStyle;curved=1;rounded=0;orthogonalLoop=1;jettySize=auto;html=1;entryX=1;entryY=0;entryDx=0;entryDy=0;" parent="1" source="SHxI3RpwAHNp5JfskMMM-28" target="SHxI3RpwAHNp5JfskMMM-65" edge="1">
          <mxGeometry relative="1" as="geometry" />
        </mxCell>
        <mxCell id="h-V5rqtTQPOeEAhD1SOx-10" style="edgeStyle=orthogonalEdgeStyle;curved=1;rounded=0;orthogonalLoop=1;jettySize=auto;html=1;exitX=0.5;exitY=1;exitDx=0;exitDy=0;entryX=0.5;entryY=0;entryDx=0;entryDy=0;" parent="1" source="SHxI3RpwAHNp5JfskMMM-28" target="NqckiGKJP6HTZG1NN7Gs-4" edge="1">
          <mxGeometry relative="1" as="geometry" />
        </mxCell>
        <mxCell id="SHxI3RpwAHNp5JfskMMM-28" value="Create Session Draft" style="rounded=1;whiteSpace=wrap;html=1;" parent="1" vertex="1">
          <mxGeometry x="350" y="490" width="120" height="60" as="geometry" />
        </mxCell>
        <mxCell id="h-V5rqtTQPOeEAhD1SOx-7" style="edgeStyle=orthogonalEdgeStyle;curved=1;rounded=0;orthogonalLoop=1;jettySize=auto;html=1;" parent="1" source="SHxI3RpwAHNp5JfskMMM-64" target="SHxI3RpwAHNp5JfskMMM-28" edge="1">
          <mxGeometry relative="1" as="geometry" />
        </mxCell>
        <mxCell id="SHxI3RpwAHNp5JfskMMM-64" value="View &amp;amp; Filter Labs/Slots" style="rounded=1;whiteSpace=wrap;html=1;" parent="1" vertex="1">
          <mxGeometry x="350" y="410" width="120" height="60" as="geometry" />
        </mxCell>
        <mxCell id="SHxI3RpwAHNp5JfskMMM-65" value="&lt;div&gt;1&lt;/div&gt;Manage Bookings &amp;amp; Questions" style="ellipse;whiteSpace=wrap;html=1;aspect=fixed;" parent="1" vertex="1">
          <mxGeometry x="195" y="480" width="120" height="120" as="geometry" />
        </mxCell>
        <mxCell id="h-V5rqtTQPOeEAhD1SOx-13" style="edgeStyle=orthogonalEdgeStyle;curved=1;rounded=0;orthogonalLoop=1;jettySize=auto;html=1;entryX=0;entryY=0;entryDx=0;entryDy=0;" parent="1" source="NqckiGKJP6HTZG1NN7Gs-2" target="SHxI3RpwAHNp5JfskMMM-65" edge="1">
          <mxGeometry relative="1" as="geometry" />
        </mxCell>
        <mxCell id="NqckiGKJP6HTZG1NN7Gs-2" value="Upload Exam Content" style="rounded=1;whiteSpace=wrap;html=1;" parent="1" vertex="1">
          <mxGeometry x="50" y="490" width="120" height="60" as="geometry" />
        </mxCell>
        <mxCell id="h-V5rqtTQPOeEAhD1SOx-11" style="edgeStyle=orthogonalEdgeStyle;curved=1;rounded=0;orthogonalLoop=1;jettySize=auto;html=1;entryX=1;entryY=0.5;entryDx=0;entryDy=0;" parent="1" source="NqckiGKJP6HTZG1NN7Gs-4" target="NqckiGKJP6HTZG1NN7Gs-5" edge="1">
          <mxGeometry relative="1" as="geometry" />
        </mxCell>
        <mxCell id="NqckiGKJP6HTZG1NN7Gs-4" value="Seat Plan (Auto/Manual)" style="rounded=1;whiteSpace=wrap;html=1;" parent="1" vertex="1">
          <mxGeometry x="350" y="590" width="120" height="60" as="geometry" />
        </mxCell>
        <mxCell id="h-V5rqtTQPOeEAhD1SOx-12" style="edgeStyle=orthogonalEdgeStyle;curved=1;rounded=0;orthogonalLoop=1;jettySize=auto;html=1;" parent="1" source="NqckiGKJP6HTZG1NN7Gs-5" target="SHxI3RpwAHNp5JfskMMM-65" edge="1">
          <mxGeometry relative="1" as="geometry" />
        </mxCell>
        <mxCell id="NqckiGKJP6HTZG1NN7Gs-5" value="Handoff for Validation" style="rounded=1;whiteSpace=wrap;html=1;" parent="1" vertex="1">
          <mxGeometry x="190" y="665" width="120" height="60" as="geometry" />
        </mxCell>
        <mxCell id="h-V5rqtTQPOeEAhD1SOx-14" style="edgeStyle=orthogonalEdgeStyle;curved=1;rounded=0;orthogonalLoop=1;jettySize=auto;html=1;entryX=1;entryY=0.5;entryDx=0;entryDy=0;" parent="1" source="NqckiGKJP6HTZG1NN7Gs-6" target="NqckiGKJP6HTZG1NN7Gs-7" edge="1">
          <mxGeometry relative="1" as="geometry" />
        </mxCell>
        <mxCell id="NqckiGKJP6HTZG1NN7Gs-6" value="&lt;div&gt;2&lt;/div&gt;Validate &amp;amp; Store Exam Content" style="ellipse;whiteSpace=wrap;html=1;aspect=fixed;" parent="1" vertex="1">
          <mxGeometry x="560" y="470" width="120" height="120" as="geometry" />
        </mxCell>
        <mxCell id="h-V5rqtTQPOeEAhD1SOx-15" style="edgeStyle=orthogonalEdgeStyle;curved=1;rounded=0;orthogonalLoop=1;jettySize=auto;html=1;entryX=0;entryY=0.5;entryDx=0;entryDy=0;" parent="1" source="NqckiGKJP6HTZG1NN7Gs-7" target="NqckiGKJP6HTZG1NN7Gs-9" edge="1">
          <mxGeometry relative="1" as="geometry" />
        </mxCell>
        <mxCell id="NqckiGKJP6HTZG1NN7Gs-7" value="OCR/Extract" style="rounded=1;whiteSpace=wrap;html=1;" parent="1" vertex="1">
          <mxGeometry x="530" y="380" width="120" height="60" as="geometry" />
        </mxCell>
        <mxCell id="h-V5rqtTQPOeEAhD1SOx-19" style="edgeStyle=orthogonalEdgeStyle;curved=1;rounded=0;orthogonalLoop=1;jettySize=auto;html=1;" parent="1" source="NqckiGKJP6HTZG1NN7Gs-8" target="NqckiGKJP6HTZG1NN7Gs-10" edge="1">
          <mxGeometry relative="1" as="geometry" />
        </mxCell>
        <mxCell id="NqckiGKJP6HTZG1NN7Gs-8" value="Parse &amp;amp; Structure" style="rounded=1;whiteSpace=wrap;html=1;" parent="1" vertex="1">
          <mxGeometry x="720" y="490" width="120" height="60" as="geometry" />
        </mxCell>
        <mxCell id="h-V5rqtTQPOeEAhD1SOx-18" style="edgeStyle=orthogonalEdgeStyle;curved=1;rounded=0;orthogonalLoop=1;jettySize=auto;html=1;entryX=0.5;entryY=0;entryDx=0;entryDy=0;" parent="1" source="NqckiGKJP6HTZG1NN7Gs-9" target="NqckiGKJP6HTZG1NN7Gs-8" edge="1">
          <mxGeometry relative="1" as="geometry" />
        </mxCell>
        <mxCell id="NqckiGKJP6HTZG1NN7Gs-9" value="QA &amp;amp; Corrections (Teacher)" style="rounded=1;whiteSpace=wrap;html=1;" parent="1" vertex="1">
          <mxGeometry x="720" y="400" width="120" height="60" as="geometry" />
        </mxCell>
        <mxCell id="NqckiGKJP6HTZG1NN7Gs-10" value="Encrypt &amp;amp; Persist" style="rounded=1;whiteSpace=wrap;html=1;" parent="1" vertex="1">
          <mxGeometry x="720" y="575" width="120" height="60" as="geometry" />
        </mxCell>
        <mxCell id="h-V5rqtTQPOeEAhD1SOx-21" style="edgeStyle=orthogonalEdgeStyle;curved=1;rounded=0;orthogonalLoop=1;jettySize=auto;html=1;entryX=0.5;entryY=1;entryDx=0;entryDy=0;" parent="1" source="NqckiGKJP6HTZG1NN7Gs-11" target="NqckiGKJP6HTZG1NN7Gs-6" edge="1">
          <mxGeometry relative="1" as="geometry" />
        </mxCell>
        <mxCell id="NqckiGKJP6HTZG1NN7Gs-11" value="Mark Session Ready" style="rounded=1;whiteSpace=wrap;html=1;" parent="1" vertex="1">
          <mxGeometry x="570" y="665" width="120" height="60" as="geometry" />
        </mxCell>
        <mxCell id="NqckiGKJP6HTZG1NN7Gs-12" value="&lt;div&gt;3&lt;/div&gt;Student Access &amp;amp; Submission" style="ellipse;whiteSpace=wrap;html=1;aspect=fixed;" parent="1" vertex="1">
          <mxGeometry x="425" y="740" width="120" height="120" as="geometry" />
        </mxCell>
        <mxCell id="h-V5rqtTQPOeEAhD1SOx-23" style="edgeStyle=orthogonalEdgeStyle;curved=1;rounded=0;orthogonalLoop=1;jettySize=auto;html=1;" parent="1" source="NqckiGKJP6HTZG1NN7Gs-14" target="NqckiGKJP6HTZG1NN7Gs-12" edge="1">
          <mxGeometry relative="1" as="geometry" />
        </mxCell>
        <mxCell id="NqckiGKJP6HTZG1NN7Gs-14" value="Pre-Access password Checks" style="rounded=1;whiteSpace=wrap;html=1;" parent="1" vertex="1">
          <mxGeometry x="600" y="760" width="120" height="60" as="geometry" />
        </mxCell>
        <mxCell id="h-V5rqtTQPOeEAhD1SOx-25" style="edgeStyle=orthogonalEdgeStyle;curved=1;rounded=0;orthogonalLoop=1;jettySize=auto;html=1;entryX=1;entryY=0.5;entryDx=0;entryDy=0;" parent="1" source="NqckiGKJP6HTZG1NN7Gs-15" target="NqckiGKJP6HTZG1NN7Gs-16" edge="1">
          <mxGeometry relative="1" as="geometry" />
        </mxCell>
        <mxCell id="NqckiGKJP6HTZG1NN7Gs-15" value="Capture Responses &amp;amp; Autosave" style="rounded=1;whiteSpace=wrap;html=1;" parent="1" vertex="1">
          <mxGeometry x="510" y="910" width="120" height="60" as="geometry" />
        </mxCell>
        <mxCell id="h-V5rqtTQPOeEAhD1SOx-26" style="edgeStyle=orthogonalEdgeStyle;curved=1;rounded=0;orthogonalLoop=1;jettySize=auto;html=1;entryX=0;entryY=0.5;entryDx=0;entryDy=0;exitX=0.5;exitY=0;exitDx=0;exitDy=0;" parent="1" source="NqckiGKJP6HTZG1NN7Gs-16" target="NqckiGKJP6HTZG1NN7Gs-12" edge="1">
          <mxGeometry relative="1" as="geometry" />
        </mxCell>
        <mxCell id="NqckiGKJP6HTZG1NN7Gs-16" value="Final Submit" style="rounded=1;whiteSpace=wrap;html=1;" parent="1" vertex="1">
          <mxGeometry x="300" y="860" width="120" height="60" as="geometry" />
        </mxCell>
        <mxCell id="h-V5rqtTQPOeEAhD1SOx-30" style="edgeStyle=orthogonalEdgeStyle;curved=1;rounded=0;orthogonalLoop=1;jettySize=auto;html=1;entryX=0;entryY=0.5;entryDx=0;entryDy=0;exitX=0.5;exitY=1;exitDx=0;exitDy=0;" parent="1" source="NqckiGKJP6HTZG1NN7Gs-17" target="NqckiGKJP6HTZG1NN7Gs-23" edge="1">
          <mxGeometry relative="1" as="geometry" />
        </mxCell>
        <mxCell id="NqckiGKJP6HTZG1NN7Gs-17" value="&lt;div&gt;4&lt;/div&gt;Auto-Grading &amp;amp; Review" style="ellipse;whiteSpace=wrap;html=1;aspect=fixed;" parent="1" vertex="1">
          <mxGeometry x="90" y="820" width="110" height="110" as="geometry" />
        </mxCell>
        <mxCell id="h-V5rqtTQPOeEAhD1SOx-27" style="edgeStyle=orthogonalEdgeStyle;curved=1;rounded=0;orthogonalLoop=1;jettySize=auto;html=1;entryX=0;entryY=0.5;entryDx=0;entryDy=0;" parent="1" source="NqckiGKJP6HTZG1NN7Gs-20" target="NqckiGKJP6HTZG1NN7Gs-17" edge="1">
          <mxGeometry relative="1" as="geometry" />
        </mxCell>
        <mxCell id="NqckiGKJP6HTZG1NN7Gs-20" value="Grade MCQs" style="rounded=1;whiteSpace=wrap;html=1;" parent="1" vertex="1">
          <mxGeometry y="730" width="120" height="60" as="geometry" />
        </mxCell>
        <mxCell id="h-V5rqtTQPOeEAhD1SOx-29" style="edgeStyle=orthogonalEdgeStyle;curved=1;rounded=0;orthogonalLoop=1;jettySize=auto;html=1;entryX=1;entryY=0;entryDx=0;entryDy=0;" parent="1" source="NqckiGKJP6HTZG1NN7Gs-21" target="NqckiGKJP6HTZG1NN7Gs-17" edge="1">
          <mxGeometry relative="1" as="geometry" />
        </mxCell>
        <mxCell id="NqckiGKJP6HTZG1NN7Gs-21" value="&lt;meta charset=&quot;utf-8&quot;&gt;Aggregate &amp;amp; Persist Auto-Score" style="rounded=1;whiteSpace=wrap;html=1;" parent="1" vertex="1">
          <mxGeometry x="240" y="740" width="120" height="60" as="geometry" />
        </mxCell>
        <mxCell id="NqckiGKJP6HTZG1NN7Gs-23" value="Publish &amp;amp; Export" style="rounded=1;whiteSpace=wrap;html=1;" parent="1" vertex="1">
          <mxGeometry x="200" y="940" width="120" height="60" as="geometry" />
        </mxCell>
        <mxCell id="h-V5rqtTQPOeEAhD1SOx-6" style="edgeStyle=orthogonalEdgeStyle;curved=1;rounded=0;orthogonalLoop=1;jettySize=auto;html=1;entryX=0;entryY=0.5;entryDx=0;entryDy=0;" parent="1" source="h-V5rqtTQPOeEAhD1SOx-2" target="SHxI3RpwAHNp5JfskMMM-64" edge="1">
          <mxGeometry relative="1" as="geometry" />
        </mxCell>
        <mxCell id="h-V5rqtTQPOeEAhD1SOx-8" style="edgeStyle=orthogonalEdgeStyle;curved=1;rounded=0;orthogonalLoop=1;jettySize=auto;html=1;entryX=0.5;entryY=0;entryDx=0;entryDy=0;" parent="1" source="h-V5rqtTQPOeEAhD1SOx-2" target="NqckiGKJP6HTZG1NN7Gs-2" edge="1">
          <mxGeometry relative="1" as="geometry" />
        </mxCell>
        <mxCell id="h-V5rqtTQPOeEAhD1SOx-2" value="Teacher" style="rounded=1;whiteSpace=wrap;html=1;" parent="1" vertex="1">
          <mxGeometry x="160" y="350" width="110" height="60" as="geometry" />
        </mxCell>
        <mxCell id="h-V5rqtTQPOeEAhD1SOx-20" style="edgeStyle=orthogonalEdgeStyle;curved=1;rounded=0;orthogonalLoop=1;jettySize=auto;html=1;entryX=0.833;entryY=0.013;entryDx=0;entryDy=0;entryPerimeter=0;" parent="1" source="NqckiGKJP6HTZG1NN7Gs-10" target="NqckiGKJP6HTZG1NN7Gs-11" edge="1">
          <mxGeometry relative="1" as="geometry" />
        </mxCell>
        <mxCell id="h-V5rqtTQPOeEAhD1SOx-22" style="edgeStyle=orthogonalEdgeStyle;curved=1;rounded=0;orthogonalLoop=1;jettySize=auto;html=1;entryX=0.575;entryY=0.015;entryDx=0;entryDy=0;entryPerimeter=0;" parent="1" source="NqckiGKJP6HTZG1NN7Gs-6" target="NqckiGKJP6HTZG1NN7Gs-12" edge="1">
          <mxGeometry relative="1" as="geometry" />
        </mxCell>
        <mxCell id="h-V5rqtTQPOeEAhD1SOx-24" style="edgeStyle=orthogonalEdgeStyle;curved=1;rounded=0;orthogonalLoop=1;jettySize=auto;html=1;entryX=0.417;entryY=0.012;entryDx=0;entryDy=0;entryPerimeter=0;" parent="1" source="NqckiGKJP6HTZG1NN7Gs-14" target="NqckiGKJP6HTZG1NN7Gs-15" edge="1">
          <mxGeometry relative="1" as="geometry" />
        </mxCell>
      </root>
    </mxGraphModel>
  </diagram>
</mxfile>
